<mxfile host="65bd71144e">
    <diagram id="ZnBiUBf1bCfZtdB9jjop" name="Page-1">
        <mxGraphModel dx="1012" dy="4666" grid="1" gridSize="10" guides="1" tooltips="1" connect="1" arrows="1" fold="1" page="1" pageScale="1" pageWidth="1320" pageHeight="1300" math="0" shadow="0">
            <root>
                <mxCell id="0"/>
                <mxCell id="1" parent="0"/>
                <mxCell id="v0_UmPn65IF8KOFBTU1C-142" value="" style="group" parent="1" vertex="1" connectable="0">
                    <mxGeometry x="40" y="-3880" width="1240" height="854" as="geometry"/>
                </mxCell>
                <mxCell id="v0_UmPn65IF8KOFBTU1C-101" value="&lt;h1&gt;Borgstelling voor saneringskrediet 4566456-8 van Kredietbank X&lt;/h1&gt;&lt;h2&gt;Status: uitbetaald&lt;/h2&gt;" style="text;html=1;strokeColor=none;fillColor=none;align=left;verticalAlign=middle;whiteSpace=wrap;rounded=0;" parent="v0_UmPn65IF8KOFBTU1C-142" vertex="1">
                    <mxGeometry width="1240" height="80" as="geometry"/>
                </mxCell>
                <mxCell id="v0_UmPn65IF8KOFBTU1C-102" value="" style="rounded=0;whiteSpace=wrap;html=1;" parent="v0_UmPn65IF8KOFBTU1C-142" vertex="1">
                    <mxGeometry y="94" width="1240" height="510" as="geometry"/>
                </mxCell>
                <mxCell id="v0_UmPn65IF8KOFBTU1C-103" value="&lt;h2&gt;Gebeurtenissen (8)&lt;/h2&gt;" style="rounded=0;whiteSpace=wrap;html=1;" parent="v0_UmPn65IF8KOFBTU1C-142" vertex="1">
                    <mxGeometry y="94" width="1240" height="60" as="geometry"/>
                </mxCell>
                <mxCell id="v0_UmPn65IF8KOFBTU1C-131" value="" style="html=1;verticalLabelPosition=bottom;labelBackgroundColor=#ffffff;verticalAlign=top;shadow=0;dashed=0;strokeWidth=2;shape=mxgraph.ios7.misc.up;strokeColor=#000000;" parent="v0_UmPn65IF8KOFBTU1C-142" vertex="1">
                    <mxGeometry x="1200" y="121" width="12" height="6" as="geometry"/>
                </mxCell>
                <mxCell id="v0_UmPn65IF8KOFBTU1C-132" value="" style="rounded=0;whiteSpace=wrap;html=1;" parent="v0_UmPn65IF8KOFBTU1C-142" vertex="1">
                    <mxGeometry y="604" width="1240" height="190" as="geometry"/>
                </mxCell>
                <mxCell id="v0_UmPn65IF8KOFBTU1C-133" value="&lt;h2&gt;Documenten (2)&lt;/h2&gt;" style="rounded=0;whiteSpace=wrap;html=1;" parent="v0_UmPn65IF8KOFBTU1C-142" vertex="1">
                    <mxGeometry y="604" width="1240" height="60" as="geometry"/>
                </mxCell>
                <mxCell id="v0_UmPn65IF8KOFBTU1C-134" value="" style="html=1;verticalLabelPosition=bottom;labelBackgroundColor=#ffffff;verticalAlign=top;shadow=0;dashed=0;strokeWidth=2;shape=mxgraph.ios7.misc.up;strokeColor=#000000;" parent="v0_UmPn65IF8KOFBTU1C-142" vertex="1">
                    <mxGeometry x="1200" y="631" width="12" height="6" as="geometry"/>
                </mxCell>
                <mxCell id="v0_UmPn65IF8KOFBTU1C-135" value="" style="group" parent="v0_UmPn65IF8KOFBTU1C-142" vertex="1" connectable="0">
                    <mxGeometry x="40" y="684" width="740" height="90" as="geometry"/>
                </mxCell>
                <mxCell id="v0_UmPn65IF8KOFBTU1C-136" value="&lt;b style=&quot;font-size: 12px&quot;&gt;&lt;font style=&quot;font-size: 14px&quot;&gt;12-01-2021 10:01&amp;nbsp;&lt;/font&gt;&lt;/b&gt;&lt;b style=&quot;font-size: 12px&quot;&gt;&lt;font style=&quot;font-size: 14px&quot;&gt;- borgstelling-uitbetaling.pdf&lt;/font&gt;&lt;/b&gt;" style="text;html=1;strokeColor=none;fillColor=none;align=left;verticalAlign=middle;whiteSpace=wrap;rounded=0;fontSize=14;" parent="v0_UmPn65IF8KOFBTU1C-135" vertex="1">
                    <mxGeometry width="740" height="50" as="geometry"/>
                </mxCell>
                <mxCell id="v0_UmPn65IF8KOFBTU1C-137" value="" style="html=1;verticalLabelPosition=bottom;align=center;labelBackgroundColor=#ffffff;verticalAlign=top;strokeWidth=2;strokeColor=#ffffff;shadow=0;dashed=0;shape=mxgraph.ios7.icons.down;fontSize=14;fillColor=#000000;" parent="v0_UmPn65IF8KOFBTU1C-135" vertex="1">
                    <mxGeometry x="319" y="12.25" width="21" height="25.5" as="geometry"/>
                </mxCell>
                <mxCell id="v0_UmPn65IF8KOFBTU1C-138" value="&lt;b style=&quot;font-size: 12px&quot;&gt;&lt;font style=&quot;font-size: 14px&quot;&gt;03-05-2020 11:04 - borgstelling-overeenkomst.pdf&lt;/font&gt;&lt;/b&gt;" style="text;html=1;strokeColor=none;fillColor=none;align=left;verticalAlign=middle;whiteSpace=wrap;rounded=0;fontSize=14;" parent="v0_UmPn65IF8KOFBTU1C-135" vertex="1">
                    <mxGeometry y="40" width="740" height="50" as="geometry"/>
                </mxCell>
                <mxCell id="v0_UmPn65IF8KOFBTU1C-139" value="" style="html=1;verticalLabelPosition=bottom;align=center;labelBackgroundColor=#ffffff;verticalAlign=top;strokeWidth=2;strokeColor=#ffffff;shadow=0;dashed=0;shape=mxgraph.ios7.icons.down;fontSize=14;fillColor=#000000;" parent="v0_UmPn65IF8KOFBTU1C-135" vertex="1">
                    <mxGeometry x="340" y="52.25" width="21" height="25.5" as="geometry"/>
                </mxCell>
                <mxCell id="v0_UmPn65IF8KOFBTU1C-140" value="&lt;h2&gt;Informatie&lt;/h2&gt;" style="rounded=0;whiteSpace=wrap;html=1;" parent="v0_UmPn65IF8KOFBTU1C-142" vertex="1">
                    <mxGeometry y="794" width="1240" height="60" as="geometry"/>
                </mxCell>
                <mxCell id="v0_UmPn65IF8KOFBTU1C-141" value="" style="html=1;verticalLabelPosition=bottom;labelBackgroundColor=#ffffff;verticalAlign=top;shadow=0;dashed=0;strokeWidth=2;shape=mxgraph.ios7.misc.down;strokeColor=#000000;fontSize=14;fillColor=#000000;" parent="v0_UmPn65IF8KOFBTU1C-142" vertex="1">
                    <mxGeometry x="1200" y="821" width="12" height="6" as="geometry"/>
                </mxCell>
                <mxCell id="v0_UmPn65IF8KOFBTU1C-104" value="" style="group" parent="v0_UmPn65IF8KOFBTU1C-142" vertex="1" connectable="0">
                    <mxGeometry x="40" y="174" width="890" height="405.5" as="geometry"/>
                </mxCell>
                <mxCell id="v0_UmPn65IF8KOFBTU1C-105" value="&lt;b&gt;&lt;font style=&quot;font-size: 14px&quot;&gt;12-01-2021 10:01 - Borgstelling uitbetaald (systeem)&lt;/font&gt;&lt;/b&gt;" style="text;html=1;strokeColor=none;fillColor=none;align=left;verticalAlign=middle;whiteSpace=wrap;rounded=0;" parent="v0_UmPn65IF8KOFBTU1C-104" vertex="1">
                    <mxGeometry x="40" y="0.5" width="850" height="30" as="geometry"/>
                </mxCell>
                <mxCell id="v0_UmPn65IF8KOFBTU1C-106" value="&lt;b&gt;&lt;font style=&quot;font-size: 14px&quot;&gt;12-01-2021 09:58 -&amp;nbsp;&lt;/font&gt;&lt;/b&gt;&lt;b&gt;&lt;font style=&quot;font-size: 14px&quot;&gt;Uitbetalingsverzoek&lt;/font&gt;&lt;/b&gt;&lt;b&gt;&lt;font style=&quot;font-size: 14px&quot;&gt;&amp;nbsp;gefiatteerd (Piet de Vries)&lt;/font&gt;&lt;/b&gt;" style="text;html=1;strokeColor=none;fillColor=none;align=left;verticalAlign=middle;whiteSpace=wrap;rounded=0;" parent="v0_UmPn65IF8KOFBTU1C-104" vertex="1">
                    <mxGeometry x="40" y="50.5" width="850" height="30" as="geometry"/>
                </mxCell>
                <mxCell id="v0_UmPn65IF8KOFBTU1C-107" value="&lt;b&gt;&lt;font style=&quot;font-size: 14px&quot;&gt;12-01-2021 09:47 - Uitbetalingsverzoek geaccepteerd (Linda de Vries)&lt;/font&gt;&lt;/b&gt;" style="text;html=1;strokeColor=none;fillColor=none;align=left;verticalAlign=middle;whiteSpace=wrap;rounded=0;" parent="v0_UmPn65IF8KOFBTU1C-104" vertex="1">
                    <mxGeometry x="40" y="105.5" width="850" height="30" as="geometry"/>
                </mxCell>
                <mxCell id="v0_UmPn65IF8KOFBTU1C-108" value="&lt;b&gt;&lt;font style=&quot;font-size: 14px&quot;&gt;09-01-2021 14:05 - Aanvullende informatie aangeleverd&amp;nbsp; (Mirjam Jansen)&lt;/font&gt;&lt;/b&gt;" style="text;html=1;strokeColor=none;fillColor=none;align=left;verticalAlign=middle;whiteSpace=wrap;rounded=0;" parent="v0_UmPn65IF8KOFBTU1C-104" vertex="1">
                    <mxGeometry x="40" y="160.5" width="850" height="30" as="geometry"/>
                </mxCell>
                <mxCell id="v0_UmPn65IF8KOFBTU1C-109" value="&lt;b&gt;&lt;font style=&quot;font-size: 14px&quot;&gt;08-01-2021 15:44 - Aanvullende informatie gevraagd (Systeem)&lt;/font&gt;&lt;/b&gt;" style="text;html=1;strokeColor=none;fillColor=none;align=left;verticalAlign=middle;whiteSpace=wrap;rounded=0;" parent="v0_UmPn65IF8KOFBTU1C-104" vertex="1">
                    <mxGeometry x="40" y="215.5" width="850" height="30" as="geometry"/>
                </mxCell>
                <mxCell id="v0_UmPn65IF8KOFBTU1C-110" value="&lt;b&gt;&lt;font style=&quot;font-size: 14px&quot;&gt;08-01-2021 15:43 - Uitbetaling verzocht (Mirjam Jansen)&lt;/font&gt;&lt;/b&gt;" style="text;html=1;strokeColor=none;fillColor=none;align=left;verticalAlign=middle;whiteSpace=wrap;rounded=0;" parent="v0_UmPn65IF8KOFBTU1C-104" vertex="1">
                    <mxGeometry x="40" y="265.5" width="850" height="30" as="geometry"/>
                </mxCell>
                <mxCell id="v0_UmPn65IF8KOFBTU1C-111" value="&lt;b&gt;&lt;font style=&quot;font-size: 14px&quot;&gt;03-05-2020 11:06 -&lt;/font&gt;&lt;/b&gt;&lt;b&gt;&lt;font style=&quot;font-size: 14px&quot;&gt;&amp;nbsp;Borgstelling afgegeven (systeem)&lt;/font&gt;&lt;/b&gt;" style="text;html=1;strokeColor=none;fillColor=none;align=left;verticalAlign=middle;whiteSpace=wrap;rounded=0;" parent="v0_UmPn65IF8KOFBTU1C-104" vertex="1">
                    <mxGeometry x="40" y="320.5" width="850" height="30" as="geometry"/>
                </mxCell>
                <mxCell id="v0_UmPn65IF8KOFBTU1C-112" value="&lt;b&gt;&lt;font style=&quot;font-size: 14px&quot;&gt;03-05-2020 11:04 - Borgstelling aangevraagd (Mirjam Jansen)&lt;/font&gt;&lt;/b&gt;" style="text;html=1;strokeColor=none;fillColor=none;align=left;verticalAlign=middle;whiteSpace=wrap;rounded=0;" parent="v0_UmPn65IF8KOFBTU1C-104" vertex="1">
                    <mxGeometry x="40" y="375.5" width="850" height="30" as="geometry"/>
                </mxCell>
                <mxCell id="v0_UmPn65IF8KOFBTU1C-113" value="" style="group" parent="v0_UmPn65IF8KOFBTU1C-104" vertex="1" connectable="0">
                    <mxGeometry width="421" height="400.5" as="geometry"/>
                </mxCell>
                <mxCell id="v0_UmPn65IF8KOFBTU1C-114" value="" style="ellipse;whiteSpace=wrap;html=1;aspect=fixed;fillColor=#000000;" parent="v0_UmPn65IF8KOFBTU1C-113" vertex="1">
                    <mxGeometry y="5.5" width="20" height="20" as="geometry"/>
                </mxCell>
                <mxCell id="v0_UmPn65IF8KOFBTU1C-115" value="" style="ellipse;whiteSpace=wrap;html=1;aspect=fixed;fillColor=#000000;" parent="v0_UmPn65IF8KOFBTU1C-113" vertex="1">
                    <mxGeometry y="55.5" width="20" height="20" as="geometry"/>
                </mxCell>
                <mxCell id="v0_UmPn65IF8KOFBTU1C-116" value="" style="rounded=0;orthogonalLoop=1;jettySize=auto;html=1;endArrow=none;endFill=0;" parent="v0_UmPn65IF8KOFBTU1C-113" source="v0_UmPn65IF8KOFBTU1C-114" target="v0_UmPn65IF8KOFBTU1C-115" edge="1">
                    <mxGeometry relative="1" as="geometry"/>
                </mxCell>
                <mxCell id="v0_UmPn65IF8KOFBTU1C-117" value="" style="html=1;verticalLabelPosition=bottom;align=center;labelBackgroundColor=#ffffff;verticalAlign=top;strokeWidth=2;strokeColor=#ffffff;shadow=0;dashed=0;shape=mxgraph.ios7.icons.down;fontSize=14;fillColor=#000000;" parent="v0_UmPn65IF8KOFBTU1C-113" vertex="1">
                    <mxGeometry x="400" width="21" height="25.5" as="geometry"/>
                </mxCell>
                <mxCell id="v0_UmPn65IF8KOFBTU1C-118" value="" style="ellipse;whiteSpace=wrap;html=1;aspect=fixed;fillColor=#000000;" parent="v0_UmPn65IF8KOFBTU1C-113" vertex="1">
                    <mxGeometry y="110.5" width="20" height="20" as="geometry"/>
                </mxCell>
                <mxCell id="v0_UmPn65IF8KOFBTU1C-119" value="" style="ellipse;whiteSpace=wrap;html=1;aspect=fixed;fillColor=#000000;" parent="v0_UmPn65IF8KOFBTU1C-113" vertex="1">
                    <mxGeometry y="165.5" width="20" height="20" as="geometry"/>
                </mxCell>
                <mxCell id="v0_UmPn65IF8KOFBTU1C-120" value="" style="rounded=0;orthogonalLoop=1;jettySize=auto;html=1;endArrow=none;endFill=0;entryX=0.5;entryY=0;entryDx=0;entryDy=0;" parent="v0_UmPn65IF8KOFBTU1C-113" target="v0_UmPn65IF8KOFBTU1C-119" edge="1">
                    <mxGeometry relative="1" as="geometry">
                        <mxPoint x="10" y="130.49999999999977" as="sourcePoint"/>
                        <mxPoint x="20" y="120.49999999999977" as="targetPoint"/>
                    </mxGeometry>
                </mxCell>
                <mxCell id="v0_UmPn65IF8KOFBTU1C-121" value="" style="ellipse;whiteSpace=wrap;html=1;aspect=fixed;fillColor=#000000;" parent="v0_UmPn65IF8KOFBTU1C-113" vertex="1">
                    <mxGeometry y="220.5" width="20" height="20" as="geometry"/>
                </mxCell>
                <mxCell id="v0_UmPn65IF8KOFBTU1C-122" value="" style="rounded=0;orthogonalLoop=1;jettySize=auto;html=1;endArrow=none;endFill=0;entryX=0.5;entryY=0;entryDx=0;entryDy=0;" parent="v0_UmPn65IF8KOFBTU1C-113" target="v0_UmPn65IF8KOFBTU1C-121" edge="1">
                    <mxGeometry relative="1" as="geometry">
                        <mxPoint x="10" y="185.49999999999977" as="sourcePoint"/>
                        <mxPoint x="20" y="175.49999999999977" as="targetPoint"/>
                    </mxGeometry>
                </mxCell>
                <mxCell id="v0_UmPn65IF8KOFBTU1C-123" value="" style="ellipse;whiteSpace=wrap;html=1;aspect=fixed;fillColor=#000000;" parent="v0_UmPn65IF8KOFBTU1C-113" vertex="1">
                    <mxGeometry y="270.5" width="20" height="20" as="geometry"/>
                </mxCell>
                <mxCell id="v0_UmPn65IF8KOFBTU1C-124" value="" style="rounded=0;orthogonalLoop=1;jettySize=auto;html=1;endArrow=none;endFill=0;entryX=0.5;entryY=0;entryDx=0;entryDy=0;exitX=0.5;exitY=1;exitDx=0;exitDy=0;" parent="v0_UmPn65IF8KOFBTU1C-113" target="v0_UmPn65IF8KOFBTU1C-123" edge="1" source="v0_UmPn65IF8KOFBTU1C-121">
                    <mxGeometry relative="1" as="geometry">
                        <mxPoint x="10" y="246" as="sourcePoint"/>
                        <mxPoint x="20" y="225.49999999999977" as="targetPoint"/>
                    </mxGeometry>
                </mxCell>
                <mxCell id="v0_UmPn65IF8KOFBTU1C-125" value="" style="ellipse;whiteSpace=wrap;html=1;aspect=fixed;fillColor=#000000;" parent="v0_UmPn65IF8KOFBTU1C-113" vertex="1">
                    <mxGeometry y="325.5" width="20" height="20" as="geometry"/>
                </mxCell>
                <mxCell id="v0_UmPn65IF8KOFBTU1C-126" value="" style="rounded=0;orthogonalLoop=1;jettySize=auto;html=1;endArrow=none;endFill=0;entryX=0.5;entryY=0;entryDx=0;entryDy=0;" parent="v0_UmPn65IF8KOFBTU1C-113" target="v0_UmPn65IF8KOFBTU1C-125" edge="1">
                    <mxGeometry relative="1" as="geometry">
                        <mxPoint x="10" y="290.4999999999998" as="sourcePoint"/>
                        <mxPoint x="20" y="280.4999999999998" as="targetPoint"/>
                    </mxGeometry>
                </mxCell>
                <mxCell id="v0_UmPn65IF8KOFBTU1C-127" value="" style="ellipse;whiteSpace=wrap;html=1;aspect=fixed;fillColor=#000000;" parent="v0_UmPn65IF8KOFBTU1C-113" vertex="1">
                    <mxGeometry y="380.5" width="20" height="20" as="geometry"/>
                </mxCell>
                <mxCell id="v0_UmPn65IF8KOFBTU1C-128" value="" style="rounded=0;orthogonalLoop=1;jettySize=auto;html=1;endArrow=none;endFill=0;entryX=0.5;entryY=0;entryDx=0;entryDy=0;" parent="v0_UmPn65IF8KOFBTU1C-113" target="v0_UmPn65IF8KOFBTU1C-127" edge="1">
                    <mxGeometry relative="1" as="geometry">
                        <mxPoint x="10" y="345.4999999999998" as="sourcePoint"/>
                        <mxPoint x="20" y="335.4999999999998" as="targetPoint"/>
                    </mxGeometry>
                </mxCell>
                <mxCell id="v0_UmPn65IF8KOFBTU1C-129" value="" style="html=1;verticalLabelPosition=bottom;align=center;labelBackgroundColor=#ffffff;verticalAlign=top;strokeWidth=2;strokeColor=#ffffff;shadow=0;dashed=0;shape=mxgraph.ios7.icons.down;fontSize=14;fillColor=#000000;" parent="v0_UmPn65IF8KOFBTU1C-113" vertex="1">
                    <mxGeometry x="400" y="320" width="21" height="25.5" as="geometry"/>
                </mxCell>
                <mxCell id="v0_UmPn65IF8KOFBTU1C-130" value="" style="rounded=0;orthogonalLoop=1;jettySize=auto;html=1;endArrow=none;endFill=0;entryX=0.5;entryY=0;entryDx=0;entryDy=0;exitX=0.5;exitY=1;exitDx=0;exitDy=0;" parent="v0_UmPn65IF8KOFBTU1C-113" source="v0_UmPn65IF8KOFBTU1C-115" target="v0_UmPn65IF8KOFBTU1C-118" edge="1">
                    <mxGeometry relative="1" as="geometry">
                        <mxPoint x="20" y="90" as="sourcePoint"/>
                        <mxPoint x="20" y="124.99999999999977" as="targetPoint"/>
                    </mxGeometry>
                </mxCell>
            </root>
        </mxGraphModel>
    </diagram>
</mxfile>